<svg width="74" height="32" viewBox="0 0 74 32" fill="none" xmlns="http://www.w3.org/2000/svg">
<path d="M8.27501 15.9985C8.70416 15.9576 9.1945 15.876 9.70528 15.7533C10.2365 15.6512 10.6861 15.5082 11.0947 15.3447C11.5033 15.1811 11.912 14.9565 12.3206 14.6703C12.7088 14.3843 13.0357 14.0779 13.3014 13.7101C13.5669 13.3628 13.7917 12.9132 13.9552 12.4024C14.1186 11.8711 14.2004 11.299 14.2004 10.6657C14.2004 9.62365 13.9143 8.76552 13.3626 8.07067C12.7497 7.3148 11.7281 6.7222 10.257 6.25232C9.99127 6.17051 9.11269 5.94571 7.68259 5.57792C7.62123 5.55764 7.45779 5.51673 7.21254 5.45538C6.96745 5.39419 6.76311 5.33284 6.59966 5.27148C6.43622 5.23058 6.27277 5.14894 6.12961 5.0264C5.96616 4.90369 5.90498 4.76069 5.90498 4.6177C5.90498 4.49516 5.94571 4.3929 6.06842 4.31126C6.17051 4.209 6.31351 4.14782 6.47695 4.10691C6.62011 4.06601 6.76311 4.02511 6.88565 4.00466C6.98791 3.9842 7.09 3.9842 7.1309 3.9842C7.33525 3.9842 7.47824 4.00466 7.60078 4.04556C7.72332 4.10691 7.78468 4.1681 7.82558 4.22946C7.86649 4.31126 7.90722 4.3929 7.94812 4.45426C7.98903 4.53589 8.02993 4.6177 8.07067 4.69934C8.11157 4.76069 8.21383 4.82205 8.33637 4.88324C8.45891 4.92414 8.64281 4.94459 8.84716 4.94459C10.543 4.94459 12.0755 4.92414 13.4444 4.86295L13.7917 4.49516C13.7713 4.10691 13.7304 3.78002 13.6488 3.51432C13.5874 3.24879 13.4649 2.96263 13.281 2.6971C13.1175 2.41094 12.9336 2.16586 12.7293 1.96151C12.5454 1.75716 12.2389 1.45072 11.8507 1.04203C10.7269 0.347342 9.2354 0 7.37598 0C6.66085 0 5.98662 0.0613553 5.33284 0.163445C4.67906 0.265535 4.02511 0.469883 3.37133 0.735587C2.71755 1.00112 2.16586 1.32801 1.69597 1.73671C1.22592 2.14541 0.837677 2.65619 0.55169 3.28952C0.265704 3.92302 0.102259 4.63815 0.102259 5.43493C0.102259 6.57921 0.470052 7.45779 1.16474 8.11157C1.87987 8.76552 3.04444 9.31704 4.6586 9.74619C4.71979 9.76664 4.90369 9.80754 5.23058 9.84828C5.57809 9.90963 5.90498 9.97099 6.21142 10.0526C6.51785 10.1344 6.8652 10.2161 7.21254 10.3388C7.55988 10.4409 7.84603 10.5839 8.05021 10.7473C8.25456 10.9312 8.37727 11.1151 8.37727 11.3195C8.37727 11.6463 8.25456 11.8916 7.98903 12.0755C7.74378 12.2594 7.45779 12.341 7.1309 12.341C6.8652 12.341 6.6404 12.3003 6.47695 12.198C6.31351 12.1164 6.19096 12.0141 6.12961 11.8711C6.04797 11.7486 5.98662 11.6259 5.94571 11.5033C5.88453 11.3604 5.82317 11.2583 5.74153 11.1765C5.65973 11.0744 5.55764 11.0335 5.41447 11.0335C4.86295 11.0335 4.02511 11.0539 2.90144 11.0744C1.77761 11.0947 0.939935 11.1151 0.388245 11.1151C0.306438 11.1151 0.2248 11.1151 0.183897 11.0947C0.0613553 11.1151 0 11.1969 0 11.3195C0.0409035 12.0346 0.204348 12.6681 0.470052 13.1993C0.735587 13.7508 1.06248 14.2004 1.47117 14.5478C1.85942 14.8951 2.34975 15.1811 2.9219 15.4264C3.51432 15.6512 4.10691 15.8146 4.74024 15.9167C5.37374 16.019 6.06842 16.0801 6.84474 16.1211C7.37598 16.1006 7.84603 16.0599 8.27501 15.9985Z" fill="#E82455"/>
<path d="M16.4383 3.45334C16.4587 3.98457 16.4792 4.33209 16.4792 4.47508C16.4792 5.31276 16.4587 6.53868 16.4587 8.1733C16.4383 9.80791 16.4383 11.0338 16.4383 11.8715V14.6911C16.4383 15.2019 16.5201 15.5902 16.6835 15.815H23.5691C26.4501 15.815 27.9416 15.6924 28.0234 15.4472V11.6263C28.0234 11.4628 27.9211 11.3607 27.7168 11.3198C27.5126 11.2586 27.1856 11.2382 26.7566 11.2382C26.2253 11.2382 25.6737 11.2177 25.1015 11.1973C24.5498 11.1768 24.1413 11.1564 23.9369 11.1564C23.7326 11.1564 23.3443 11.1768 22.8131 11.1973H22.6088L22.711 0.899403C22.6497 0.695054 22.3228 0.552061 21.7302 0.490706C21.1582 0.409068 20.3817 0.368164 19.4418 0.368164C19.1967 0.368164 18.8494 0.368164 18.3793 0.388616C17.889 0.409068 17.5621 0.409067 17.3577 0.409067H17.0308C16.9083 0.409067 16.8265 0.409068 16.7449 0.388616C16.5201 0.511157 16.418 1.1242 16.418 2.20696C16.418 2.51357 16.418 2.94255 16.4383 3.45334Z" fill="#EBA325"/>
<path d="M28.3581 9.62381C28.4193 10.1346 28.5418 10.6658 28.7055 11.2175C28.8894 11.7488 29.0935 12.2596 29.3592 12.7294C29.6248 13.1995 29.9721 13.6285 30.3808 14.0576C30.7895 14.4661 31.2594 14.8339 31.7906 15.1201C32.3014 15.4061 32.9349 15.6513 33.6499 15.8148C34.3855 15.9987 35.1824 16.0803 36.0405 16.0803C36.7557 16.0803 37.4913 16.0191 38.2064 15.8761C38.9215 15.733 39.6367 15.4879 40.3721 15.1405C41.0872 14.7727 41.6389 14.3436 42.0272 13.8124L42.4563 13.1995C43.4574 11.8304 43.9478 10.0323 43.9273 7.78485C43.9273 6.70192 43.7843 5.72125 43.4983 4.84267C43.1917 3.96409 42.7218 3.12624 42.0681 2.30902C41.7412 1.90032 41.3325 1.53253 40.8421 1.22609C40.3516 0.919652 39.8408 0.6744 39.3096 0.510955C38.7784 0.367961 38.288 0.24542 37.7977 0.163613C37.3278 0.102258 36.8782 0.0615234 36.4288 0.0615234C35.6318 0.0615234 34.8555 0.143161 34.1199 0.306606C33.3639 0.470051 32.6488 0.735755 31.9541 1.10355C31.2798 1.47134 30.6668 1.90032 30.156 2.43156C29.6248 2.9628 29.1958 3.61675 28.8689 4.37262C28.5216 5.14911 28.3172 5.98678 28.2559 6.92672V8.0301C28.2559 8.56134 28.2763 9.09257 28.3581 9.62381ZM36.9396 4.22962C37.1439 4.33188 37.3278 4.47487 37.4504 4.67922C37.5933 4.8834 37.6956 5.08775 37.7977 5.31255C37.8998 5.53735 37.9611 5.78243 38.002 6.08904C38.0429 6.37503 38.0632 6.64073 38.0837 6.88581C38.1041 7.13107 38.1041 7.37615 38.1041 7.6623V8.60207C38.0837 8.84732 38.0632 9.15376 38.0429 9.5011C38.0225 9.84844 37.9611 10.1346 37.9202 10.3797C37.8591 10.6045 37.7772 10.8497 37.6752 11.0948C37.5524 11.3605 37.4299 11.5444 37.2869 11.7079C37.1235 11.8509 36.9396 11.9734 36.7148 12.0757C36.49 12.1777 36.2244 12.2186 35.9384 12.2186C35.6523 12.1982 35.4072 12.1166 35.1824 11.9734C34.9781 11.81 34.7942 11.6058 34.6716 11.381C34.5489 11.1562 34.4673 10.8906 34.3855 10.584C34.3038 10.2571 34.2629 9.97115 34.222 9.70545C34.2016 9.41946 34.2016 9.13331 34.2016 8.82687V8.0301C34.2016 7.82575 34.222 7.53959 34.2425 7.17197C34.2629 6.80418 34.3038 6.49757 34.365 6.25249C34.4059 6.00723 34.4673 5.7417 34.5694 5.43509C34.6716 5.12865 34.7942 4.90385 34.9372 4.71996C35.0597 4.53606 35.2436 4.37262 35.4684 4.25007C35.6727 4.12753 35.918 4.06618 36.1835 4.06618C36.4695 4.06618 36.7148 4.12753 36.9396 4.22962Z" fill="#43B349"/>
<path d="M44.2217 4.96896H47.0822C47.1434 4.96896 47.2252 4.98941 47.2864 5.00986C47.3273 5.0506 47.3682 5.0915 47.4091 5.15286C47.4499 5.21421 47.4703 5.2754 47.4908 5.33675C47.5112 5.39811 47.5317 5.47975 47.5521 5.58184V5.82709C47.5521 5.90889 47.5726 5.99053 47.5726 6.09279V6.31742C47.5726 7.33916 47.5317 8.83062 47.4703 10.833C47.4091 12.8354 47.3682 14.3269 47.3682 15.3486L47.7769 15.8185C48.022 15.8185 48.2264 15.8185 48.3489 15.7981H50.1265C50.6577 15.8185 51.0664 15.8185 51.3524 15.8185C51.3729 15.7981 51.3933 15.7981 51.3933 15.7981H52.4149C52.8645 15.8185 53.2119 15.8185 53.4367 15.8185C53.6204 15.7981 53.7226 15.696 53.784 15.4916V4.80551C54.1516 4.80551 54.7033 4.80551 55.4389 4.82597C56.1745 4.84642 56.7262 4.84642 57.1144 4.84642C57.2983 4.84642 57.3799 4.68297 57.3799 4.33563V2.78265C57.3799 2.10842 57.3595 1.59763 57.3595 1.25029V0.964136C57.3595 0.800691 57.3186 0.678149 57.237 0.616794C57.1349 0.555608 56.9305 0.535156 56.5832 0.535156C55.2345 0.535156 53.1914 0.555608 50.4534 0.57606C47.736 0.596512 45.6724 0.616794 44.2829 0.616794H44.1399C43.9969 0.616794 43.9355 0.964136 43.9355 1.67927C43.9355 1.82243 43.956 2.00633 43.956 2.21051C43.9765 2.41486 43.9765 2.53757 43.9765 2.5783C43.9765 2.66011 43.9765 2.82355 43.956 3.04835C43.956 3.29344 43.9355 3.47733 43.9355 3.60004C43.9355 4.45817 44.0378 4.9076 44.2217 4.96896Z" fill="#3677D9"/>
<path d="M67.1813 15.9985C67.6104 15.9576 68.1007 15.876 68.6115 15.7533C69.1428 15.6512 69.5924 15.5082 70.0009 15.3447C70.4096 15.1811 70.8183 14.9565 71.2268 14.6703C71.6151 14.3843 71.942 14.0779 72.2077 13.7101C72.4732 13.3628 72.698 12.9132 72.8614 12.4024C73.0249 11.8711 73.1067 11.299 73.1067 10.6657C73.1067 9.62365 72.8205 8.76552 72.2688 8.07067C71.656 7.3148 70.6344 6.7222 69.1632 6.25232C68.8975 6.17051 68.0189 5.94571 66.5888 5.57792C66.5275 5.55764 66.364 5.51673 66.1188 5.45538C65.8737 5.39419 65.6694 5.33284 65.5059 5.27148C65.3425 5.23058 65.179 5.14894 65.0359 5.0264C64.8724 4.90369 64.8112 4.76069 64.8112 4.6177C64.8112 4.49516 64.852 4.3929 64.9747 4.31126C65.0768 4.209 65.2198 4.14782 65.3832 4.10691C65.5264 4.06601 65.6694 4.02511 65.7919 4.00466C65.8942 3.9842 65.9962 3.9842 66.0371 3.9842C66.2415 3.9842 66.3845 4.00466 66.507 4.04556C66.6296 4.10691 66.6909 4.1681 66.7318 4.22946C66.7727 4.31126 66.8135 4.3929 66.8544 4.45426C66.8953 4.53589 66.9362 4.6177 66.9769 4.69934C67.0178 4.76069 67.1201 4.82205 67.2426 4.88324C67.3652 4.92414 67.5491 4.94459 67.7534 4.94459C69.4492 4.94459 70.9817 4.92414 72.3507 4.86295L72.698 4.49516C72.6775 4.10691 72.6366 3.78002 72.555 3.51432C72.4936 3.24879 72.3711 2.96263 72.1872 2.6971C72.0238 2.41094 71.8399 2.16586 71.6355 1.96151C71.4516 1.75716 71.1452 1.45072 70.7569 1.04203C69.6331 0.347342 68.1417 0 66.2822 0C65.5671 0 64.8929 0.0613553 64.2391 0.163445C63.5853 0.265535 62.9314 0.469883 62.2776 0.735587C61.6238 1.00112 61.0721 1.32801 60.6022 1.73671C60.1322 2.14541 59.7439 2.65619 59.4579 3.28952C59.172 3.92302 59.0085 4.63815 59.0085 5.43493C59.0085 6.57921 59.3763 7.45779 60.071 8.11157C60.7861 8.76552 61.9507 9.31704 63.5649 9.74619C63.626 9.76664 63.8099 9.80754 64.137 9.84828C64.4843 9.90963 64.8112 9.97099 65.1177 10.0526C65.4241 10.1344 65.7714 10.2161 66.1188 10.3388C66.4661 10.4409 66.7523 10.5839 66.9565 10.7473C67.1608 10.9312 67.2835 11.1151 67.2835 11.3195C67.2835 11.6463 67.1608 11.8916 66.8953 12.0755C66.65 12.2594 66.364 12.341 66.0371 12.341C65.7714 12.341 65.5468 12.3003 65.3832 12.198C65.2198 12.1164 65.0972 12.0141 65.0359 11.8711C64.9542 11.7486 64.8929 11.6259 64.852 11.5033C64.7908 11.3604 64.7294 11.2583 64.6478 11.1765C64.566 11.0744 64.4639 11.0335 64.3207 11.0335C63.7692 11.0335 62.9314 11.0539 61.8077 11.0744C60.6839 11.0947 59.8462 11.1151 59.2945 11.1151C59.2127 11.1151 59.1311 11.1151 59.0901 11.0947C58.9676 11.1151 58.9062 11.1969 58.9062 11.3195C58.9472 12.0346 59.1106 12.6681 59.3763 13.1993C59.6418 13.7508 59.9687 14.2004 60.3774 14.5478C60.7657 14.8951 61.256 15.1811 61.8281 15.4264C62.4206 15.6512 63.0132 15.8146 63.6465 15.9167C64.28 16.019 64.9747 16.0801 65.751 16.1211C66.2822 16.1006 66.7523 16.0599 67.1813 15.9985Z" fill="#794CBF"/>
<path d="M15.0731 20.7716C15.0731 20.513 14.9971 20.3761 14.8602 20.3609H13.7649C13.2325 20.3609 12.4415 20.3609 11.407 20.3761C10.3726 20.3913 9.5968 20.4066 9.06438 20.4066C9.04917 20.4066 8.98832 20.3913 8.91226 20.3761L7.72572 26.3849L7.16287 23.4185C6.90427 22.1103 6.72172 21.1215 6.60003 20.4674C6.29579 20.4674 5.85464 20.4522 5.27658 20.4066C4.69852 20.3609 3.70974 20.3457 2.29502 20.3457H0.941149C0.865089 20.3457 0.819453 20.3609 0.773817 20.3609C0.728181 20.3761 0.682544 20.3913 0.636908 20.4066C0.591272 20.4218 0.545636 20.4522 0.530424 20.4826C0.5 20.513 0.5 20.5587 0.5 20.6043V31.6178C0.5 31.7091 0.621696 31.7547 0.895513 31.7547C1.18454 31.7547 1.61048 31.7547 2.17332 31.7395H4.1661C4.24216 31.7395 4.30301 31.6787 4.33343 31.5722C4.31822 31.2832 4.31822 30.842 4.31822 30.2487V28.9405C4.31822 28.1191 4.34865 26.9021 4.39428 25.32C4.45513 25.533 4.53119 25.8525 4.63768 26.2936C4.72895 26.7195 4.82022 27.1151 4.89628 27.4497C4.97234 27.7996 5.0484 28.1191 5.10925 28.4385L5.82421 31.5418C5.88506 31.7091 6.06761 31.8004 6.38706 31.8004H9.01874C9.42947 31.8004 9.65765 31.7243 9.70328 31.5874C9.80977 31.1462 10.0075 30.2487 10.2966 28.9101C10.5856 27.5714 10.829 26.5522 11.0267 25.822V26.1263C11.0419 26.248 11.0419 26.3392 11.0419 26.3849V26.9021C11.0419 27.1607 11.0419 27.5866 11.0267 28.1951V29.7467C11.0267 30.9333 11.1484 31.6178 11.3766 31.8004H14.7689C14.8754 31.8004 14.9667 31.7547 15.0275 31.6787C15.1036 31.6026 15.1644 31.4961 15.1948 31.344C15.2253 31.1919 15.2557 31.0398 15.2709 30.8724C15.2861 30.7051 15.3013 30.5226 15.2861 30.3248V29.762C15.2709 29.5946 15.2709 29.4121 15.2557 29.2295C15.2557 29.047 15.2405 28.9101 15.2405 28.8188C15.2405 28.256 15.1796 25.5786 15.0731 20.7716Z" fill="#CADEE5"/>
<path d="M20.9187 31.7875V20.4241C20.7818 20.4393 20.508 20.4546 20.1125 20.4546C18.4392 20.4546 17.207 20.4241 16.4008 20.3633C16.3095 20.4393 16.2639 20.5154 16.2639 20.6219C16.2639 20.7588 16.2639 20.9261 16.2943 21.1543V21.3673C16.2943 21.565 16.2943 21.8845 16.3247 22.2952C16.2639 24.4401 16.2334 26.5394 16.2334 28.6234C16.1878 29.2927 16.1422 30.3424 16.127 31.7875H20.9187Z" fill="#CADEE5"/>
<path d="M23.0367 22.5988C23.0519 22.9943 23.0671 23.2529 23.0671 23.3594C23.0671 23.9831 23.0519 24.8958 23.0519 26.1128C23.0367 27.3297 23.0367 28.2424 23.0367 28.8661V30.9654C23.0367 31.3457 23.0975 31.6347 23.2192 31.8021H28.3457C30.4906 31.8021 31.6011 31.7108 31.6619 31.5282V28.6836C31.6619 28.5619 31.5859 28.4858 31.4337 28.4554C31.2816 28.4098 31.0382 28.3946 30.7188 28.3946C30.3233 28.3946 29.9125 28.3794 29.4866 28.3641C29.0759 28.3489 28.7716 28.3337 28.6195 28.3337C28.4674 28.3337 28.1784 28.3489 27.7829 28.3641H27.6307L27.7068 20.6973C27.6612 20.5451 27.4178 20.4387 26.9766 20.393C26.5507 20.3322 25.9726 20.3018 25.2729 20.3018C25.0903 20.3018 24.8317 20.3018 24.4818 20.317C24.1168 20.3322 23.8734 20.3322 23.7212 20.3322H23.4778C23.3866 20.3322 23.3257 20.3322 23.2649 20.317C23.0975 20.4082 23.0215 20.8646 23.0215 21.6708C23.0215 21.899 23.0215 22.2185 23.0367 22.5988Z" fill="#CADEE5"/>
<path d="M32.4273 22.5988C32.4425 22.9943 32.4577 23.2529 32.4577 23.3594C32.4577 23.9831 32.4425 24.8958 32.4425 26.1128C32.4273 27.3297 32.4273 28.2424 32.4273 28.8661V30.9654C32.4273 31.3457 32.4882 31.6347 32.6099 31.8021H37.7363C39.8812 31.8021 40.9917 31.7108 41.0525 31.5282V28.6836C41.0525 28.5619 40.9765 28.4858 40.8244 28.4554C40.6722 28.4098 40.4289 28.3946 40.1094 28.3946C39.7139 28.3946 39.3032 28.3794 38.8772 28.3641C38.4665 28.3489 38.1623 28.3337 38.0101 28.3337C37.858 28.3337 37.569 28.3489 37.1735 28.3641H37.0214L37.0974 20.6973C37.0518 20.5451 36.8084 20.4387 36.3672 20.393C35.9413 20.3322 35.3632 20.3018 34.6635 20.3018C34.4809 20.3018 34.2223 20.3018 33.8725 20.317C33.5074 20.3322 33.264 20.3322 33.1119 20.3322H32.8685C32.7772 20.3322 32.7164 20.3322 32.6555 20.317C32.4882 20.4082 32.4121 20.8646 32.4121 21.6708C32.4121 21.899 32.4121 22.2185 32.4273 22.5988Z" fill="#CADEE5"/>
<path d="M46.4402 31.7875V20.4241C46.3033 20.4393 46.0295 20.4546 45.634 20.4546C43.9607 20.4546 42.7285 20.4241 41.9223 20.3633C41.831 20.4393 41.7853 20.5154 41.7853 20.6219C41.7853 20.7588 41.7853 20.9261 41.8158 21.1543V21.3673C41.8158 21.565 41.8158 21.8845 41.8462 22.2952C41.7853 24.4401 41.7549 26.5394 41.7549 28.6234C41.7093 29.2927 41.6636 30.3424 41.6484 31.7875H46.4402Z" fill="#CADEE5"/>
<path d="M47.5468 27.1935C47.5924 27.5738 47.6837 27.9693 47.8054 28.38C47.9423 28.7755 48.0944 29.1558 48.2922 29.5057C48.4899 29.8556 48.7485 30.175 49.0528 30.4945C49.357 30.7987 49.7069 31.0725 50.1024 31.2855C50.4827 31.4985 50.9543 31.681 51.4867 31.8027C52.0343 31.9396 52.6276 32.0005 53.2665 32.0005C53.7989 32.0005 54.3465 31.9548 54.879 31.8483C55.4114 31.7419 55.9438 31.5593 56.4914 31.3007C57.0239 31.0269 57.4346 30.7074 57.7236 30.3119L58.0431 29.8556C58.7885 28.8364 59.1535 27.4977 59.1383 25.8244C59.1383 25.0181 59.0319 24.288 58.8189 23.6338C58.5907 22.9797 58.2408 22.356 57.754 21.7475C57.5106 21.4433 57.2064 21.1695 56.8413 20.9413C56.4762 20.7131 56.0959 20.5306 55.7004 20.4089C55.3049 20.3024 54.9398 20.2111 54.5747 20.1503C54.2248 20.1046 53.8902 20.0742 53.5555 20.0742C52.9622 20.0742 52.3842 20.1351 51.8366 20.2568C51.2737 20.3785 50.7413 20.5762 50.2241 20.85C49.7221 21.1238 49.2657 21.4433 48.8854 21.8388C48.4899 22.2343 48.1705 22.7211 47.9271 23.284C47.6685 23.862 47.5163 24.4857 47.4707 25.1855V26.0069C47.4707 26.4024 47.4859 26.7979 47.5468 27.1935ZM53.9358 23.1775C54.0879 23.2535 54.2248 23.36 54.3161 23.5121C54.4226 23.6643 54.4987 23.8164 54.5747 23.9837C54.6508 24.151 54.6964 24.3336 54.7268 24.5618C54.7573 24.7747 54.7725 24.9725 54.7877 25.155C54.8029 25.3376 54.8029 25.5201 54.8029 25.7331V26.4329C54.7877 26.6154 54.7725 26.8436 54.7573 27.1022C54.7421 27.3608 54.6964 27.5738 54.666 27.7563C54.6204 27.9236 54.5595 28.1062 54.4835 28.2887C54.3922 28.4865 54.3009 28.6234 54.1944 28.7451C54.0727 28.8516 53.9358 28.9428 53.7685 29.0189C53.6012 29.095 53.4034 29.1254 53.1904 29.1254C52.9775 29.1102 52.7949 29.0493 52.6276 28.9428C52.4755 28.8211 52.3386 28.669 52.2473 28.5017C52.156 28.3344 52.0952 28.1366 52.0343 27.9084C51.9735 27.665 51.943 27.4521 51.9126 27.2543C51.8974 27.0413 51.8974 26.8284 51.8974 26.6002V26.0069C51.8974 25.8548 51.9126 25.6418 51.9278 25.368C51.943 25.0942 51.9735 24.866 52.0191 24.6835C52.0495 24.5009 52.0952 24.3032 52.1712 24.075C52.2473 23.8468 52.3386 23.6795 52.445 23.5426C52.5363 23.4057 52.6732 23.284 52.8406 23.1927C52.9927 23.1014 53.1752 23.0558 53.373 23.0558C53.5859 23.0558 53.7685 23.1014 53.9358 23.1775Z" fill="#CADEE5"/>
<path d="M61.4274 31.7987H64.8349C65.0326 31.7987 65.1391 31.677 65.1391 31.4488V30.5209C65.1391 30.3079 65.1239 29.9732 65.1239 29.5321C65.1087 29.1061 65.1087 28.7715 65.1087 28.5585V27.2503C65.1239 26.6722 65.1239 26.2311 65.1239 25.942C65.1696 26.0942 65.4282 26.7787 65.8845 27.9957C66.3561 29.2278 66.706 30.171 66.9341 30.8099C67.1471 31.4184 67.2992 31.7226 67.3601 31.753H69.5506C69.8092 31.753 70.1895 31.753 70.6763 31.7378C71.1783 31.7226 71.5586 31.7226 71.8172 31.7226H72.015C72.2888 31.7226 72.4561 31.6618 72.4865 31.5249V26.3832C72.4865 23.8124 72.4713 21.8348 72.4409 20.4657C72.4409 20.4353 72.4105 20.4201 72.3192 20.4201H71.7564C71.6651 20.4201 71.3913 20.4201 70.9653 20.4049C70.5394 20.3896 70.1895 20.3896 69.9461 20.3896C69.1551 20.3896 68.7596 20.4657 68.7596 20.6026C68.7596 20.9677 68.7596 21.4849 68.7444 22.1542C68.7292 22.8084 68.7292 23.2647 68.7292 23.5081V26.3984L67.6948 23.6755C67.6035 23.4473 67.4514 23.0365 67.2384 22.4585C67.0102 21.8652 66.8277 21.3784 66.6908 20.9981C66.5386 20.6178 66.4322 20.4353 66.3865 20.4353H61.2753C61.2296 20.4505 61.2144 20.5266 61.2144 20.633V21.2415C61.1232 24.6947 61.0775 27.0373 61.0927 28.2543V31.6161L61.4274 31.7987Z" fill="#CADEE5"/>
</svg>
